<svg width="24" height="13" viewBox="0 0 24 13" fill="none" xmlns="http://www.w3.org/2000/svg">
<path d="M24 12.1522C24 11.6842 23.5968 11.3043 23.1 11.3043H0.9C0.4032 11.3043 0 11.6842 0 12.1522C0 12.6202 0.4032 13 0.9 13H23.1C23.5968 13 24 12.6202 24 12.1522ZM24 6.5C24 6.032 23.5968 5.65217 23.1 5.65217H0.9C0.4032 5.65217 0 6.032 0 6.5C0 6.968 0.4032 7.34783 0.9 7.34783H23.1C23.5968 7.34783 24 6.968 24 6.5ZM24 0.847826C24 0.379826 23.5968 0 23.1 0H0.9C0.4032 0 0 0.379826 0 0.847826C0 1.31583 0.4032 1.69565 0.9 1.69565H23.1C23.5968 1.69565 24 1.31583 24 0.847826Z" fill="white"/>
</svg>
