<?xml version="1.0" encoding="utf-8"?><!DOCTYPE svg PUBLIC "-//W3C//DTD SVG 1.1//EN" "http://www.w3.org/Graphics/SVG/1.1/DTD/svg11.dtd"><svg xmlns="http://www.w3.org/2000/svg" xmlns:xlink="http://www.w3.org/1999/xlink"><symbol fill="none" viewBox="0 0 253 81" id="arrow" xmlns="http://www.w3.org/2000/svg"><path opacity=".25" d="M128.5 16l.278-.96-.278.96zm124.495 62.358a1 1 0 01-.893 1.096l-8.953.918a1 1 0 01-.204-1.99l7.959-.815-.816-7.959a1 1 0 011.99-.203l.917 8.953zm-.995.102l-.631.775h-.001l-.002-.002-.011-.01a5.267 5.267 0 01-.045-.036l-.184-.147c-.164-.131-.41-.327-.736-.582a176.41 176.41 0 00-2.903-2.22l1.201-1.6c1.289.967 2.272 1.727 2.935 2.245.331.26.582.46.751.594l.191.153.049.04.013.01a.012.012 0 00.003.003h.001l.001.001-.632.776zm-7.713-4.584a317.7 317.7 0 00-8.091-5.678l1.125-1.654a321.738 321.738 0 018.141 5.713l-1.175 1.619zm-11.383-7.89a381.383 381.383 0 00-8.356-5.388l1.062-1.694a382.111 382.111 0 018.4 5.416l-1.106 1.666zm-11.723-7.474a404.694 404.694 0 00-8.523-5.08l1.003-1.73a404.848 404.848 0 018.565 5.104l-1.045 1.706zm-11.952-7.044a405.891 405.891 0 00-8.683-4.781l.944-1.764a410.71 410.71 0 018.725 4.804l-.986 1.74zm-12.188-6.635a405.8 405.8 0 00-8.855-4.488l.882-1.795a405.314 405.314 0 018.899 4.51l-.926 1.773zm-12.419-6.218a391.71 391.71 0 00-8.991-4.17l.819-1.825c3.087 1.385 6.1 2.785 9.036 4.192l-.864 1.803zm-12.63-5.78a378.662 378.662 0 00-9.127-3.842l.752-1.853A381.349 381.349 0 01172.792 31l-.8 1.834zm-12.814-5.315a363.597 363.597 0 00-9.272-3.5l.681-1.881a365.793 365.793 0 019.323 3.52l-.732 1.861zm-13.008-4.83a348.203 348.203 0 00-9.403-3.137l.606-1.907a348.81 348.81 0 019.457 3.156l-.66 1.888zm-13.188-4.316c-1.576-.48-3.162-.952-4.759-1.413l.555-1.921c1.606.463 3.202.938 4.787 1.42l-.583 1.914zm-4.759-1.413a375.012 375.012 0 00-4.944-1.39l.528-1.93c1.647.451 3.305.917 4.971 1.399l-.555 1.92zm-8.904-2.452c-3.356-.879-6.67-1.697-9.939-2.457l.453-1.948a371.46 371.46 0 019.992 2.47l-.506 1.935zm-13.944-3.366a371.79 371.79 0 00-10.017-2.07l.377-1.964c3.302.635 6.661 1.327 10.072 2.081l-.432 1.953zM91.318 8.32A370.52 370.52 0 0081.21 6.634l.301-1.978c3.317.506 6.707 1.07 10.163 1.695l-.356 1.968zM77.168 6.04c-3.476-.49-6.865-.919-10.16-1.29l.224-1.988c3.314.374 6.721.804 10.215 1.298l-.28 1.98zM62.92 4.312c-3.52-.357-6.925-.65-10.206-.888l.145-1.995c3.3.24 6.723.534 10.263.893l-.202 1.99zm-14.297-1.16c-3.575-.218-6.988-.371-10.226-.471l.062-2c3.257.102 6.69.255 10.285.474l-.121 1.996zM34.3 2.578a313.82 313.82 0 00-10.244-.025l-.029-2a315.81 315.81 0 0110.31.026l-.038 2zm-14.34.062c-3.977.112-7.402.293-10.216.486l-.137-1.995c2.84-.195 6.292-.377 10.297-.49l.056 1.999zm-14.294.807c-1.647.147-2.907.283-3.753.382a75.03 75.03 0 00-1.254.158l-.013.002H.642L.5 3 .36 2.01h.006l.017-.003.065-.009c.057-.008.141-.02.252-.033.221-.03.55-.07.981-.121.864-.101 2.142-.24 3.808-.388l.178 1.992z" fill="#fff"/></symbol><symbol fill-rule="evenodd" clip-rule="evenodd" viewBox="0 0 24 24" id="chat" xmlns="http://www.w3.org/2000/svg"><path d="M20 15a1 1 0 11-2 0 1 1 0 012 0m-3 0a1 1 0 11-2 0 1 1 0 012 0m-3 0a1 1 0 11-2 0 1 1 0 012 0m5.415 4.946c-1 .256-1.989.482-3.324.482-3.465 0-7.091-2.065-7.091-5.423 0-3.128 3.14-5.672 7-5.672 3.844 0 7 2.542 7 5.672 0 1.591-.646 2.527-1.481 3.527l.839 2.686-2.943-1.272zM6.042 16.571l-4.389 1.896 1.256-4.012C1.788 13.114 1 11.79 1 9.756 1 5.479 5.262 2 10.5 2c5.018 0 9.128 3.194 9.467 7.222A9.266 9.266 0 0016 8.333c-4.199 0-8 2.797-8 6.672 0 .712.147 1.4.411 2.049-.953-.126-1.546-.272-2.369-.483M24 15.005c0-2.172-1.199-4.015-3.002-5.21L21 9.756C21 4.67 16.012 1 10.5 1 4.954 1 0 4.698 0 9.756a7.71 7.71 0 001.791 4.922L.047 20.25l6.078-2.625c.982.253 1.932.407 2.85.489 1.317 1.953 3.876 3.314 7.116 3.314 1.019 0 2.105-.135 3.242-.428l4.631 2-1.328-4.245A5.886 5.886 0 0024 15.005"/></symbol><symbol fill-rule="evenodd" clip-rule="evenodd" viewBox="0 0 24 24" id="close" xmlns="http://www.w3.org/2000/svg"><path d="M12 11.293L22.293 1l.707.707L12.707 12 23 22.293l-.707.707L12 12.707 1.707 23 1 22.293 11.293 12 1 1.707 1.707 1 12 11.293z"/></symbol><symbol fill-rule="evenodd" clip-rule="evenodd" viewBox="0 0 24 24" id="gmail" xmlns="http://www.w3.org/2000/svg"><path d="M22.288 21H1.712A1.713 1.713 0 010 19.288V5.712C0 4.767.767 4 1.712 4h20.576C23.233 4 24 4.767 24 5.712v13.576c0 .945-.767 1.712-1.712 1.712zM12 14.914L2.658 8.431 2.638 20h18.684V8.431L12 14.914zM20.869 5H3.08L12 11.229S18.252 6.823 20.869 5z"/></symbol><symbol viewBox="0 0 24 24" id="living_ex" xmlns="http://www.w3.org/2000/svg"><path d="M0 0v19h24V0H0zm22 17H2V2h20v15zm-6.599 4L18 24H6l2.599-3h6.802zM9 5l6 4.674-2.538.427L14 13.196 12.429 14l-1.546-3.157L9 12.602V5z"/></symbol><symbol fill-rule="evenodd" clip-rule="evenodd" viewBox="0 0 24 24" id="open" xmlns="http://www.w3.org/2000/svg"><path d="M24 18v1H0v-1h24zm0-6v1H0v-1h24zm0-6v1H0V6h24z" fill="#1040e2"/><path d="M24 19H0v-1h24v1zm0-6H0v-1h24v1zm0-6H0V6h24v1z"/></symbol><symbol fill-rule="evenodd" clip-rule="evenodd" viewBox="0 0 24 24" id="order" xmlns="http://www.w3.org/2000/svg"><path d="M13.403 24H0V2h3C4.231 2 5.181.916 6 0h8c.821.916 1.772 2 3 2h3v9.15a7.57 7.57 0 00-1.5-.15l-.5.016V4h-4l-2 2H8.103L6 4H2v18h9.866a7.529 7.529 0 001.537 2zM18.5 13c3.035 0 5.5 2.464 5.5 5.5S21.535 24 18.5 24c-3.036 0-5.5-2.464-5.5-5.5s2.464-5.5 5.5-5.5zm0 2c1.931 0 3.5 1.568 3.5 3.5S20.431 22 18.5 22c-1.932 0-3.5-1.568-3.5-3.5s1.568-3.5 3.5-3.5zm2.5 4h-3v-3h1v2h2v1zM5.849 14.948L4.8 13.964l-.8.823 1.864 1.776L9 13.371l-.815-.808-2.336 2.385zM12 16h-2v-1h2v1zm2-2h-4v-1h4v1zM5.849 9.975L4.8 8.992l-.8.823 1.864 1.776L9 8.399l-.815-.808-2.336 2.384zM14 11h-4v-1h4v1zm0-2h-4V8h4v1zM9 3a1.001 1.001 0 102.002-.002A1.001 1.001 0 009 3z"/></symbol><symbol fill-rule="evenodd" clip-rule="evenodd" stroke-linejoin="round" stroke-miterlimit="1.414" viewBox="0 0 24 24" id="telegram" xmlns="http://www.w3.org/2000/svg"><path d="M12 0C5.374 0 0 5.372 0 12c0 6.627 5.374 12 12 12 6.627 0 12-5.373 12-12 0-6.628-5.373-12-12-12zm3.224 17.871c.188.133.43.166.646.085a.678.678 0 00.422-.491c.507-2.382 1.737-8.412 2.198-10.578a.457.457 0 00-.151-.443.47.47 0 00-.465-.082c-2.446.906-9.979 3.732-13.058 4.871a.484.484 0 00-.316.467.483.483 0 00.346.445c1.381.413 3.193.988 3.193.988s.847 2.558 1.288 3.858a.512.512 0 00.352.336.505.505 0 00.474-.121l1.805-1.704s2.084 1.527 3.266 2.369zm-6.423-5.062l.98 3.231.218-2.046 5.941-5.358a.162.162 0 00.019-.22.165.165 0 00-.219-.037l-6.939 4.43z"/></symbol></svg>