<?xml version="1.0" encoding="utf-8"?><!DOCTYPE svg PUBLIC "-//W3C//DTD SVG 1.1//EN" "http://www.w3.org/Graphics/SVG/1.1/DTD/svg11.dtd"><svg xmlns="http://www.w3.org/2000/svg" xmlns:xlink="http://www.w3.org/1999/xlink"><symbol fill-rule="evenodd" clip-rule="evenodd" viewBox="0 0 24 24" id="chat" xmlns="http://www.w3.org/2000/svg"><path d="M20 15a1 1 0 11-2 0 1 1 0 012 0m-3 0a1 1 0 11-2 0 1 1 0 012 0m-3 0a1 1 0 11-2 0 1 1 0 012 0m5.415 4.946c-1 .256-1.989.482-3.324.482-3.465 0-7.091-2.065-7.091-5.423 0-3.128 3.14-5.672 7-5.672 3.844 0 7 2.542 7 5.672 0 1.591-.646 2.527-1.481 3.527l.839 2.686-2.943-1.272zM6.042 16.571l-4.389 1.896 1.256-4.012C1.788 13.114 1 11.79 1 9.756 1 5.479 5.262 2 10.5 2c5.018 0 9.128 3.194 9.467 7.222A9.266 9.266 0 0016 8.333c-4.199 0-8 2.797-8 6.672 0 .712.147 1.4.411 2.049-.953-.126-1.546-.272-2.369-.483M24 15.005c0-2.172-1.199-4.015-3.002-5.21L21 9.756C21 4.67 16.012 1 10.5 1 4.954 1 0 4.698 0 9.756a7.71 7.71 0 001.791 4.922L.047 20.25l6.078-2.625c.982.253 1.932.407 2.85.489 1.317 1.953 3.876 3.314 7.116 3.314 1.019 0 2.105-.135 3.242-.428l4.631 2-1.328-4.245A5.886 5.886 0 0024 15.005"/></symbol><symbol fill-rule="evenodd" clip-rule="evenodd" viewBox="0 0 24 24" id="close" xmlns="http://www.w3.org/2000/svg"><path d="M12 11.293L22.293 1l.707.707L12.707 12 23 22.293l-.707.707L12 12.707 1.707 23 1 22.293 11.293 12 1 1.707 1.707 1 12 11.293z"/></symbol><symbol fill-rule="evenodd" clip-rule="evenodd" viewBox="0 0 24 24" id="gmail" xmlns="http://www.w3.org/2000/svg"><path d="M22.288 21H1.712A1.713 1.713 0 010 19.288V5.712C0 4.767.767 4 1.712 4h20.576C23.233 4 24 4.767 24 5.712v13.576c0 .945-.767 1.712-1.712 1.712zM12 14.914L2.658 8.431 2.638 20h18.684V8.431L12 14.914zM20.869 5H3.08L12 11.229S18.252 6.823 20.869 5z"/></symbol><symbol fill-rule="evenodd" clip-rule="evenodd" viewBox="0 0 24 24" id="open" xmlns="http://www.w3.org/2000/svg"><path d="M24 18v1H0v-1h24zm0-6v1H0v-1h24zm0-6v1H0V6h24z" fill="#1040e2"/><path d="M24 19H0v-1h24v1zm0-6H0v-1h24v1zm0-6H0V6h24v1z"/></symbol><symbol fill-rule="evenodd" clip-rule="evenodd" stroke-linejoin="round" stroke-miterlimit="1.414" viewBox="0 0 24 24" id="telegram" xmlns="http://www.w3.org/2000/svg"><path d="M12 0C5.374 0 0 5.372 0 12c0 6.627 5.374 12 12 12 6.627 0 12-5.373 12-12 0-6.628-5.373-12-12-12zm3.224 17.871c.188.133.43.166.646.085a.678.678 0 00.422-.491c.507-2.382 1.737-8.412 2.198-10.578a.457.457 0 00-.151-.443.47.47 0 00-.465-.082c-2.446.906-9.979 3.732-13.058 4.871a.484.484 0 00-.316.467.483.483 0 00.346.445c1.381.413 3.193.988 3.193.988s.847 2.558 1.288 3.858a.512.512 0 00.352.336.505.505 0 00.474-.121l1.805-1.704s2.084 1.527 3.266 2.369zm-6.423-5.062l.98 3.231.218-2.046 5.941-5.358a.162.162 0 00.019-.22.165.165 0 00-.219-.037l-6.939 4.43z"/></symbol></svg>